<?xml version="1.0" standalone="no"?>
<!DOCTYPE svg PUBLIC "-//W3C//DTD SVG 1.1//EN" "http://www.w3.org/Graphics/SVG/1.1/DTD/svg11.dtd">

<svg width="800" height="600" version="1.1" xmlns="http://www.w3.org/2000/svg">
	<ellipse stroke="black" stroke-width="1" fill="none" cx="382.5" cy="107.5" rx="30" ry="30"/>
	<text x="357.5" y="113.5" font-family="Times New Roman" font-size="20">Tok A</text>
	<ellipse stroke="black" stroke-width="1" fill="none" cx="375.5" cy="423.5" rx="30" ry="30"/>
	<text x="350.5" y="429.5" font-family="Times New Roman" font-size="20">Tok B</text>
	<ellipse stroke="black" stroke-width="1" fill="none" cx="216.5" cy="245.5" rx="30" ry="30"/>
	<text x="191.5" y="251.5" font-family="Times New Roman" font-size="20">Tok C</text>
	<ellipse stroke="black" stroke-width="1" fill="none" cx="521.5" cy="245.5" rx="30" ry="30"/>
	<text x="496.5" y="251.5" font-family="Times New Roman" font-size="20">Tok D</text>
	<ellipse stroke="black" stroke-width="1" fill="none" cx="619.5" cy="245.5" rx="30" ry="30"/>
	<text x="595.5" y="251.5" font-family="Times New Roman" font-size="20">Tok E</text>
	<path stroke="black" stroke-width="1" fill="none" d="M 399.224,132.385 A 253.53,253.53 0 0 1 393.309,399.38"/>
	<polygon fill="black" stroke-width="1" points="393.309,399.38 401.863,395.401 393.481,389.947"/>
	<text x="439.5" y="272.5" font-family="Times New Roman" font-size="20">0.2</text>
	<polygon stroke="black" stroke-width="1" points="359.431,126.678 239.569,226.322"/>
	<polygon fill="black" stroke-width="1" points="239.569,226.322 248.918,225.053 242.525,217.363"/>
	<text x="259.5" y="167.5" font-family="Times New Roman" font-size="20">0.09</text>
	<path stroke="black" stroke-width="1" fill="none" d="M 359.53,398.123 A 264.437,264.437 0 0 1 365.422,132.145"/>
	<polygon fill="black" stroke-width="1" points="359.53,398.123 360.036,388.702 351.284,393.54"/>
	<text x="296.5" y="270.5" font-family="Times New Roman" font-size="20">0.1</text>
	<polygon stroke="black" stroke-width="1" points="381.836,137.493 376.164,393.507"/>
	<polygon fill="black" stroke-width="1" points="376.164,393.507 381.34,385.62 371.343,385.399"/>
	<text x="338.5" y="271.5" font-family="Times New Roman" font-size="20">0.01</text>
	<path stroke="black" stroke-width="1" fill="none" d="M 346.061,428.926 A 131.451,131.451 0 0 1 207.799,274.142"/>
	<polygon fill="black" stroke-width="1" points="346.061,428.926 337.739,424.483 338.42,434.46"/>
	<text x="223.5" y="405.5" font-family="Times New Roman" font-size="20">0</text>
	<polygon stroke="black" stroke-width="1" points="236.485,267.874 355.515,401.126"/>
	<polygon fill="black" stroke-width="1" points="355.515,401.126 353.914,391.829 346.456,398.491"/>
	<text x="280.5" y="355.5" font-family="Times New Roman" font-size="20">1</text>
	<path stroke="black" stroke-width="1" fill="none" d="M 411.712,101.104 A 107.969,107.969 0 0 1 527.685,216.243"/>
	<polygon fill="black" stroke-width="1" points="527.685,216.243 533.227,208.609 523.252,207.916"/>
	<text x="501.5" y="123.5" font-family="Times New Roman" font-size="20">0.2</text>
	<polygon stroke="black" stroke-width="1" points="403.79,128.636 500.21,224.364"/>
	<polygon fill="black" stroke-width="1" points="500.21,224.364 498.056,215.179 491.01,222.275"/>
	<text x="457.5" y="167.5" font-family="Times New Roman" font-size="20">0.05</text>
	<path stroke="black" stroke-width="1" fill="none" d="M 406.643,89.784 A 143.812,143.812 0 0 1 622.991,215.759"/>
	<polygon fill="black" stroke-width="1" points="622.991,215.759 628.091,207.822 618.091,207.696"/>
	<text x="556.5" y="80.5" font-family="Times New Roman" font-size="20">0.15</text>
	<path stroke="black" stroke-width="1" fill="none" d="M 396.593,81.083 A 138.588,138.588 0 0 1 635.518,220.204"/>
	<polygon fill="black" stroke-width="1" points="635.518,220.204 643.532,215.225 634.554,210.819"/>
	<text x="585.5" y="30.5" font-family="Times New Roman" font-size="20">0.2</text>
	<path stroke="black" stroke-width="1" fill="none" d="M 617.381,275.392 A 185.576,185.576 0 0 1 404.612,430.609"/>
	<polygon fill="black" stroke-width="1" points="404.612,430.609 411.721,436.81 413.302,426.936"/>
	<text x="548.5" y="418.5" font-family="Times New Roman" font-size="20">1</text>
	<path stroke="black" stroke-width="1" fill="none" d="M 516.393,275.036 A 207.515,207.515 0 0 1 403.466,412.713"/>
	<polygon fill="black" stroke-width="1" points="403.466,412.713 412.834,413.826 408.571,404.78"/>
	<text x="481.5" y="376.5" font-family="Times New Roman" font-size="20">0.5</text>
</svg>
